/* XPM */
static char * teste2_xpm[] = {
"16 16 237 2",
"  	c #8C463B",
". 	c #9F4432",
"+ 	c #9B4232",
"@ 	c #953F32",
"# 	c #943F32",
"$ 	c #923D32",
"% 	c #9F756A",
"& 	c #AA6D5F",
"* 	c #A04435",
"= 	c #964033",
"- 	c #953F33",
"; 	c #913D32",
"> 	c #963F32",
", 	c #903E33",
"' 	c #8E6E66",
") 	c #933D2E",
"! 	c #983F30",
"~ 	c #9B4030",
"{ 	c #923C31",
"] 	c #983F31",
"^ 	c #A04331",
"/ 	c #994131",
"( 	c #97685E",
"_ 	c #9F4C3D",
": 	c #A04432",
"< 	c #9C4232",
"[ 	c #964032",
"} 	c #973F32",
"| 	c #933E32",
"1 	c #95685F",
"2 	c #7B312B",
"3 	c #82332D",
"4 	c #7B312D",
"5 	c #80342E",
"6 	c #7D322E",
"7 	c #7E332E",
"8 	c #77302E",
"9 	c #88635B",
"0 	c #8A433B",
"a 	c #83362F",
"b 	c #82352F",
"c 	c #7F342E",
"d 	c #742F2E",
"e 	c #76302C",
"f 	c #7B312C",
"g 	c #825752",
"h 	c #82605A",
"i 	c #7F5C56",
"j 	c #80635C",
"k 	c #6D5552",
"l 	c #795753",
"m 	c #7D5B56",
"n 	c #806761",
"o 	c #86615B",
"p 	c #815D57",
"q 	c #7C5853",
"r 	c #82625B",
"s 	c #7B625A",
"t 	c #79615A",
"u 	c #7F6059",
"v 	c #765A55",
"w 	c #9C493B",
"x 	c #824842",
"y 	c #986259",
"z 	c #A74F3F",
"A 	c #A24B3B",
"B 	c #9D493A",
"C 	c #A14C3C",
"D 	c #A44B39",
"E 	c #A04B3B",
"F 	c #935C54",
"G 	c #A04F41",
"H 	c #A04D3E",
"I 	c #A8503D",
"J 	c #A54E3E",
"K 	c #A54A38",
"L 	c #933C30",
"M 	c #95463B",
"N 	c #A86A5C",
"O 	c #A04330",
"P 	c #953F31",
"Q 	c #8F3C31",
"R 	c #8B3B31",
"S 	c #893A31",
"T 	c #923E31",
"U 	c #8B4C44",
"V 	c #9D4535",
"W 	c #A54532",
"X 	c #9D4131",
"Y 	c #9F4231",
"Z 	c #A34430",
"` 	c #A14330",
" .	c #83332A",
"..	c #803B35",
"+.	c #8D5D53",
"@.	c #83342A",
"#.	c #772F2A",
"$.	c #742E2A",
"%.	c #702C2A",
"&.	c #7E322B",
"*.	c #7A4844",
"=.	c #813831",
"-.	c #7F322A",
";.	c #82322A",
">.	c #7B302A",
",.	c #845751",
"'.	c #79524D",
").	c #67504D",
"!.	c #6E5550",
"~.	c #7A5F58",
"{.	c #7E615A",
"].	c #7E635C",
"^.	c #7F625B",
"/.	c #80625B",
"(.	c #86726B",
"_.	c #80635D",
":.	c #795C56",
"<.	c #7B615A",
"[.	c #7C635D",
"}.	c #80615A",
"|.	c #A14B3A",
"1.	c #A64C3B",
"2.	c #A14939",
"3.	c #9F4A3A",
"4.	c #94473C",
"5.	c #92574E",
"6.	c #946E63",
"7.	c #974E3D",
"8.	c #9C513D",
"9.	c #98503E",
"0.	c #A8563F",
"a.	c #A4543D",
"b.	c #964E3D",
"c.	c #8A655C",
"d.	c #935349",
"e.	c #A64F3F",
"f.	c #A54732",
"g.	c #A44632",
"h.	c #974638",
"i.	c #955C4E",
"j.	c #9D4A32",
"k.	c #A44E33",
"l.	c #A04B32",
"m.	c #9D4A33",
"n.	c #9F4B33",
"o.	c #934431",
"p.	c #885A52",
"q.	c #9F4939",
"r.	c #AB4833",
"s.	c #8A3930",
"t.	c #8D3B31",
"u.	c #883931",
"v.	c #943F31",
"w.	c #904136",
"x.	c #864D43",
"y.	c #863E30",
"z.	c #853D30",
"A.	c #7B382F",
"B.	c #7B372E",
"C.	c #833B2E",
"D.	c #886057",
"E.	c #8F4339",
"F.	c #85352D",
"G.	c #733834",
"H.	c #733934",
"I.	c #653836",
"J.	c #6B3330",
"K.	c #723934",
"L.	c #723F3B",
"M.	c #734E49",
"N.	c #703C34",
"O.	c #6C3B35",
"P.	c #6E3C35",
"Q.	c #6F443E",
"R.	c #6A3E39",
"S.	c #693731",
"T.	c #765E58",
"U.	c #794A44",
"V.	c #6B3632",
"W.	c #9B6559",
"X.	c #945A50",
"Y.	c #9F574A",
"Z.	c #9C5C51",
"`.	c #93746B",
" +	c #9C6256",
".+	c #A16658",
"++	c #A0685B",
"@+	c #A26A5D",
"#+	c #A1695C",
"$+	c #955D55",
"%+	c #835E59",
"&+	c #7F655E",
"*+	c #925E56",
"=+	c #9A5E54",
"-+	c #9C6459",
";+	c #A64732",
">+	c #A14532",
",+	c #9E5042",
"'+	c #8B5C56",
")+	c #9B4233",
"!+	c #994132",
"~+	c #994032",
"{+	c #974032",
"]+	c #9D4232",
"^+	c #985145",
"/+	c #9A5F54",
"(+	c #A64531",
"_+	c #9D412F",
":+	c #A0412E",
"<+	c #86372E",
"[+	c #85372E",
"}+	c #913C2E",
"|+	c #8C3F34",
"1+	c #7A322E",
"2+	c #7D332E",
"3+	c #80342D",
"4+	c #7F332D",
"5+	c #883B32",
"6+	c #814C46",
"7+	c #7E3129",
"8+	c #863329",
"9+	c #81625A",
"0+	c #845F55",
"a+	c #875E54",
"b+	c #866259",
"c+	c #866C64",
"d+	c #836159",
"e+	c #806059",
"f+	c #7F5F58",
"g+	c #7D5F57",
"h+	c #7F6058",
"i+	c #7F5C54",
"j+	c #795D57",
"k+	c #7D645D",
"l+	c #7C5B55",
"m+	c #7E5C55",
"n+	c #775C55",
"  . + @ # @ $ % & * = - ; > , ' ",
") ! ~ { ] ^ / ( _ : : < [ } | 1 ",
"2 3 4 5 6 7 8 9 0 a b c d e f g ",
"h i j j k l m n o p q r s t u v ",
"w x y z A B C D E F G H I _ J K ",
"L M N O P Q R S T U V W X Y Z ` ",
" ...+.@.#.$.%.%.&.*.=.-.;.;. .>.",
",.'.).!.~.{.].^./.(._.:.<.[.j }.",
"|.1.2.3.4.5.6.7.8.9.0.a.b.c.d.e.",
"f.g.: : g.h.i.j.k.l.m.n.o.p.q.r.",
"s.t.u.Q v.w.x.y.z.z.A.B.C.D.E.F.",
"G.H.I.J.K.L.M.N.O.P.Q.R.S.T.U.V.",
"W.X.Y.Z.`. +.+++@+#+$+%+&+*+=+-+",
";+. >+,+'+)+!+~+!+{+]+^+/+(+_+:+",
"<+[+}+|+*.7 1+2+1+3+4+5+6+ .7+8+",
"9+0+a+b+c+d+e+f+g+h+i+j+k+l+m+n+"};
