/* XPM */
static char * teste_xpm[] = {
"63 47 258 2",
"  	c None",
". 	c #3B3B3B",
"+ 	c #959595",
"@ 	c #878787",
"# 	c #706451",
"$ 	c #3D3D3D",
"% 	c #505050",
"& 	c #737373",
"* 	c #3F3F3F",
"= 	c #7C7C7C",
"- 	c #838383",
"; 	c #5A5A5A",
"> 	c #929292",
", 	c #ABABAB",
"' 	c #4F3939",
") 	c #CBCBCB",
"! 	c #ACACAC",
"~ 	c #8D8D8D",
"{ 	c #545454",
"] 	c #868686",
"^ 	c #515151",
"/ 	c #676766",
"( 	c #4E4C40",
"_ 	c #444444",
": 	c #888888",
"< 	c #447882",
"[ 	c #2F525B",
"} 	c #304249",
"| 	c #2E464E",
"1 	c #313F46",
"2 	c #333638",
"3 	c #404040",
"4 	c #6D563A",
"5 	c #A3906A",
"6 	c #7E7E7E",
"7 	c #9C9C9C",
"8 	c #3B8290",
"9 	c #32707C",
"0 	c #2A4B58",
"a 	c #2F5E6F",
"b 	c #27798B",
"c 	c #2B6E7C",
"d 	c #466F79",
"e 	c #485A60",
"f 	c #2B2B2B",
"g 	c #1F1F1F",
"h 	c #272727",
"i 	c #554435",
"j 	c #E4BA69",
"k 	c #4C3D2F",
"l 	c #9F9F9F",
"m 	c #9E9E9E",
"n 	c #A9A9A9",
"o 	c #A5A5A5",
"p 	c #368392",
"q 	c #2E5867",
"r 	c #2D6678",
"s 	c #2B5C6B",
"t 	c #4B5B62",
"u 	c #636363",
"v 	c #A2A2A2",
"w 	c #C4C4C4",
"x 	c #CFCFCF",
"y 	c #919191",
"z 	c #3E3E3E",
"A 	c #212121",
"B 	c #171717",
"C 	c #B68732",
"D 	c #A68D57",
"E 	c #686868",
"F 	c #494848",
"G 	c #3C3C3C",
"H 	c #9D9D9D",
"I 	c #347484",
"J 	c #326A79",
"K 	c #416974",
"L 	c #999999",
"M 	c #B7B7B7",
"N 	c #BDBDBD",
"O 	c #B0B0B0",
"P 	c #D9D9D9",
"Q 	c #696969",
"R 	c #4D4D4D",
"S 	c #454545",
"T 	c #5F421C",
"U 	c #E4B85D",
"V 	c #4A4039",
"W 	c #633133",
"X 	c #564645",
"Y 	c #4C4C4C",
"Z 	c #494949",
"` 	c #2E2E2E",
" .	c #909090",
"..	c #949494",
"+.	c #979797",
"@.	c #8B8B8B",
"#.	c #676767",
"$.	c #454A4D",
"%.	c #426B75",
"&.	c #C7C7C7",
"*.	c #B3B3B3",
"=.	c #757575",
"-.	c #6F6F6F",
";.	c #767676",
">.	c #989898",
",.	c #595959",
"'.	c #333333",
").	c #BC8C39",
"!.	c #97845D",
"~.	c #383838",
"{.	c #413939",
"].	c #502D2E",
"^.	c #373737",
"/.	c #464646",
"(.	c #424242",
"_.	c #2F2F2F",
":.	c #323232",
"<.	c #3A3A3A",
"[.	c #393939",
"}.	c #353637",
"|.	c #6A6A6A",
"1.	c #6B6B6B",
"2.	c #727272",
"3.	c #606060",
"4.	c #6D6D6D",
"5.	c #6E6E6E",
"6.	c #565656",
"7.	c #1C1C1C",
"8.	c #1A1A1A",
"9.	c #222222",
"0.	c #836D4A",
"a.	c #43A1B4",
"b.	c #3696A9",
"c.	c #4092A5",
"d.	c #407D8F",
"e.	c #363636",
"f.	c #252525",
"g.	c #282828",
"h.	c #2A2A2A",
"i.	c #535353",
"j.	c #4A4A4A",
"k.	c #5F5F5F",
"l.	c #474747",
"m.	c #828282",
"n.	c #898989",
"o.	c #7B7B7B",
"p.	c #434343",
"q.	c #335C67",
"r.	c #C7963A",
"s.	c #AF9A69",
"t.	c #304E57",
"u.	c #415660",
"v.	c #505C64",
"w.	c #292929",
"x.	c #232323",
"y.	c #808080",
"z.	c #BBBBBB",
"A.	c #C3C3C3",
"B.	c #585858",
"C.	c #343434",
"D.	c #353535",
"E.	c #202020",
"F.	c #ADADAD",
"G.	c #A8A8A8",
"H.	c #344852",
"I.	c #A77931",
"J.	c #B46F28",
"K.	c #4B4B4B",
"L.	c #5B5B5B",
"M.	c #A7A7A7",
"N.	c #F3F3F3",
"O.	c #E9E9E9",
"P.	c #CDCDCD",
"Q.	c #484848",
"R.	c #161616",
"S.	c #5E5E5E",
"T.	c #BE7C27",
"U.	c #5B5959",
"V.	c #5C5C5C",
"W.	c #C1C1C1",
"X.	c #D6D6D6",
"Y.	c #616161",
"Z.	c #5D5D5D",
"`.	c #414141",
" +	c #626262",
".+	c #966D26",
"++	c #C4A154",
"@+	c #525252",
"#+	c #262626",
"$+	c #1E1E1E",
"%+	c #1D1D1D",
"&+	c #555555",
"*+	c #A0A0A0",
"=+	c #787878",
"-+	c #7F7F7F",
";+	c #4F4F4F",
">+	c #303030",
",+	c #666666",
"'+	c #969696",
")+	c #2F2520",
"!+	c #B9975A",
"~+	c #2D2D2D",
"{+	c #2C2C2C",
"]+	c #4E4E4E",
"^+	c #575757",
"/+	c #0E0E0E",
"(+	c #313131",
"_+	c #363534",
":+	c #473E39",
"<+	c #9A9A9A",
"[+	c #818181",
"}+	c #B5B5B5",
"|+	c #707070",
"1+	c #373433",
"2+	c #47403C",
"3+	c #939393",
"4+	c #848484",
"5+	c #BABABA",
"6+	c #CACACA",
"7+	c #604638",
"8+	c #717171",
"9+	c #7D7D7D",
"0+	c #191919",
"a+	c #141414",
"b+	c #C5C5C5",
"c+	c #C8C8C8",
"d+	c #7A7A7A",
"e+	c #4B4843",
"f+	c #56514F",
"g+	c #826047",
"h+	c #181818",
"i+	c #B9B9B9",
"j+	c #A1A1A1",
"k+	c #797979",
"l+	c #D3D3D3",
"m+	c #C6C6C6",
"n+	c #A6A6A6",
"o+	c #676360",
"p+	c #997A62",
"q+	c #C8A887",
"r+	c #0F0F0F",
"s+	c #AFAFAF",
"t+	c #8C8C8C",
"u+	c #5D5B5A",
"v+	c #8A6F58",
"w+	c #BFA07F",
"x+	c #AEAEAE",
"y+	c #5B4A39",
"z+	c #372D26",
"A+	c #544C45",
"B+	c #625041",
"C+	c #7C6752",
"D+	c #866D56",
"E+	c #886E53",
"F+	c #90755D",
"G+	c #242424",
"H+	c #8A8A8A",
"I+	c #1B1B1B",
"                                                                                                                              ",
"                                                                                                                              ",
"                                                                                                                              ",
"                                                                                                                              ",
"                                                                                                                              ",
"                                                                                                                              ",
"                                                                                                                              ",
"                                                                                                                              ",
"                                                                                                                              ",
"                                                                    .                                                         ",
"                                                                                                                              ",
"                                                                    +                                                         ",
"                                                                    @   #                                                     ",
"                                                                      $ % &                                                   ",
"                                                                      * = - ;     > ,                                         ",
"                                                                      '   ) ! $ ~ { ]                                         ",
"                                                                            + ^ / ( _ :                                       ",
"                                                              < [ } | 1 2     3 4 5 6 7                                       ",
"                                                          8 9 0 a b c d e f g h i j k l                                       ",
"                            m n o , o                   p q r s t u v w x y z A B C D E :                                     ",
"                            F $ G z E + H             I J K { L M N H H O P Q R S T U V m                                     ",
"                            $ W X Y Z ` S -  ...+.@.#.$.%.+ &.*.+ : =.-.;.> >.,.f '.).!.                                      ",
"                          ~.'.{.].^./.(._.:.<.* 3 z [.}.=.+ |.E 1.Q 2.3.4.5.6._.7.8.9.0.a.b.c.d.                              ",
"                            . _.^._.e.^.G f.g.h.f f _.i.j.k.l.& 6.m.n...o.6.p.:.;.  q.r.s.      t.u.v.                        ",
"                                  '.:.w.f _.x.` y.z.A.B.* . C.D.f.g ^.[.E.i.Z F.G.H.  I.J.                                    ",
"                            K.[.            L.M.N.O.P.] Q.` R.w.* & S.k.` <.D., &       T.    [.[.                            ",
"                U.6.$ K.V.% ; % 3 (.^.          L W.X.n B.Y.S Z.,.Z #.|.`.C. +H         .+++p.w.D.(._ %                       ",
"                ^.@+` _ #+E.$+%+A x.Z &+m.Z._ <.,.=.*+A.; =+] -+S.%+g.l.;+>+,+'+    #+C.)+!+S f [.~+{+. ]+                    ",
"                Y S.^+e./+~+#+x.'.A ~.Q.,.N H E ^ 2.5. +(+3.A ~+k.. j.` _+:+z       e.f.g.~ L.{     * h._.(.                  ",
"                x.R B.{ R ^+i.B.o.<+& G [+- Q 7 }+~ |+1.G V.g.<. +&+h.[.1+2+      ` h.#+  = 3+. ,.4+  >+9.:.                  ",
"                9.7.h S S <.{+>+#.o 5+6+@...&+` ` +.=.4+_ _ ; % ]+[+Y `.  7+      _.$+g.% 8+o.~.^ 9+    g.%+[.                ",
"                :.0+a+3 % (+~.e.;.&.5+>.b+c+$ f.^.^+,.Q Q.d+e+A S 1.S C.f+g+      h.h+V.k. +V.:.S 4.n.  `.$+w.                ",
"                (+%+/+  +.i+j+k+x.S M.l+m+n+{ D.9.3.S Z.e.f o+` ;+e./.{   p+q+    #+R.|.4.5.~.$ Z E ]   p.%+x.                ",
"                _.f.r+Z s+- Y G & *+  3 t+l A.n.'.S g.:.h.G <.L.% D.l.u+  v+w+    h.%+  6 @.S.g.l.d+'+  D.%+h                 ",
"                  f 7.G   N ! : x+3+  8.h+g   =+> - _.C.`.e.y+z+A+B+C+D+E+F+      w.G+R   n.  Z.d+H+    h x.h                 ",
"                  ~+>+g z           7.0+A $+      w.w.C._.                        w._._.    H+~ [+    ]+f h                   ",
"                    ~.z #+:.S ; :.A f.g A                                           f C._ 1.        ^+l.(+E.                  ",
"                    9.3 i.]+^ l.`.<.~+E.                                              f _ l.R ; ,.* /.<.g.                    ",
"                        :.Y ]+l.p._.7.                                                  $+<.j.]+Y K.C.G+                      ",
"                          I+h+h+0+8.                                                      h+B h+h+h+8.                        ",
"                                                                                                                              ",
"                                                                                                                              ",
"                                                                                                                              ",
"                                                                                                                              ",
"                                                                                                                              ",
"                                                                                                                              ",
"                                                                                                                              "};
